<?xml version="1.0" encoding="utf-8"?>
<!-- Generator: Adobe Illustrator 25.2.0, SVG Export Plug-In . SVG Version: 6.00 Build 0)  -->
<svg version="1.1" id="Layer_1" xmlns="http://www.w3.org/2000/svg" xmlns:xlink="http://www.w3.org/1999/xlink" x="0px" y="0px"
	 viewBox="0 0 300 273.9" style="enable-background:new 0 0 300 273.9;" xml:space="preserve">
<style type="text/css">
	.st0{fill:#4696F0;}
	.st1{fill:#131940;}
	.st2{fill:url(#SVGID_1_);}
	.st3{fill:url(#SVGID_2_);}
	.st4{fill:#F3B74C;}
	.st5{fill:#FFFFFF;stroke:#FFFFFF;stroke-width:1.1336;}
	.st6{fill:#FECE2F;}
	.st7{opacity:0.15;fill:#231F20;}
</style>
<g>
	<g>
		<path class="st0" d="M188.1,266.3c-42.9,10.2-80-13.7-103.5-28.8c-14.7-9.5-34.5-22.2-49.3-40.9c-7.8-10-14.3-21.7-17.8-35.5
			c-2.8-11.1-3.5-22.4-2.3-33.7c1.4-13.6,5.4-27,11.4-39.7c3.3-7.1,7.3-14,11.8-20.6c19-27.7,47.2-49.5,76.7-57.7
			c27.2-7.5,67.1-6.7,78.2,12.6c9.7,16.8-11.3,32.1-5.5,56.7c9.2,39.6,71.8,34.6,85.3,70.9C286.8,186.6,244.4,253,188.1,266.3z"/>
	</g>
	<g>
		<g>
			<path class="st1" d="M184,44.9c-3.8-1-7.8,1-9.2,4.7c-8.4,22.7-37.3,101.2-46,129.5c-0.9,3,0.6,6.2,3.6,7.3
				c14.5,5.5,56.3,21.2,80.7,28.4c5.1,1.5,10.4-1.2,12.3-6.2c8.7-23.9,33-91.2,41-123.1c1-3.8-0.9-7.8-4.5-9.4
				C246.3,69.1,205.2,50.7,184,44.9z"/>
		</g>
		
			<linearGradient id="SVGID_1_" gradientUnits="userSpaceOnUse" x1="181.099" y1="136.3563" x2="203.9724" y2="310.5459" gradientTransform="matrix(0.9387 0.3446 -0.3446 0.9387 88.4488 -114.0797)">
			<stop  offset="0" style="stop-color:#FFFFFF"/>
			<stop  offset="0.128" style="stop-color:#FAFCFF"/>
			<stop  offset="0.2762" style="stop-color:#ECF4FD"/>
			<stop  offset="0.4344" style="stop-color:#D5E7FC"/>
			<stop  offset="0.5996" style="stop-color:#B4D5F9"/>
			<stop  offset="0.7703" style="stop-color:#8BBDF6"/>
			<stop  offset="0.9432" style="stop-color:#58A0F1"/>
			<stop  offset="1" style="stop-color:#4696F0"/>
		</linearGradient>
		<path class="st2" d="M178.5,57.8c-7.4,19.4-32,83.8-39.4,108.2c-1.1,3.6,0.6,7.3,3.9,8.7c13.6,5.5,48.6,19.5,69.6,24.6
			c3.8,0.9,7.7-1.2,9.2-5c7.8-19.7,31.3-79.5,38.6-103.6c1.2-3.9-0.6-7.9-4.1-9.5c-14.6-6.5-52.1-22.9-69.7-27.8
			C183.3,52.6,179.7,54.4,178.5,57.8z"/>
		
			<linearGradient id="SVGID_2_" gradientUnits="userSpaceOnUse" x1="179.2105" y1="120.0968" x2="195.7253" y2="120.0968" gradientTransform="matrix(0.9387 0.3446 -0.3446 0.9387 88.4488 -114.0797)">
			<stop  offset="0" style="stop-color:#4F52FF"/>
			<stop  offset="1" style="stop-color:#4042E2"/>
		</linearGradient>
		<path class="st3" d="M215.4,60.3c-0.2,0.5,0.1,1.1,0.6,1.3c2.6,1.1,10,4,13.3,5.4c0.7,0.3,1.4-0.2,1.5-0.8c0,0,0.2-0.9-0.6-1.3
			c-2.2-1-8.9-3.9-13.5-5.3C215.7,59.3,215.3,60.3,215.4,60.3z"/>
		<g>
			<path class="st0" d="M214.7,142.2c8.4,2.9,17.5-1.6,20.4-10c2.9-8.4-1.6-17.5-10-20.4c-8.4-2.9-17.5,1.6-20.4,10
				S206.3,139.3,214.7,142.2z"/>
			<path class="st0" d="M184.3,131.8c8.4,2.9,17.5-1.6,20.4-10c2.9-8.4-1.6-17.5-10-20.4c-8.4-2.9-17.5,1.6-20.4,10
				C171.5,119.8,176,128.9,184.3,131.8z"/>
			<path class="st4" d="M204.8,121.8c8.4,2.9,17.5-1.6,20.4-10c2.9-8.4-1.6-17.5-10-20.4c-8.4-2.9-17.5,1.6-20.4,10
				C191.9,109.8,196.4,118.9,204.8,121.8z"/>
			<path class="st4" d="M194.3,152.2c8.4,2.9,17.5-1.6,20.4-10c2.9-8.4-1.6-17.5-10-20.4c-8.4-2.9-17.5,1.6-20.4,10
				C181.5,140.2,185.9,149.3,194.3,152.2z"/>
			<path class="st1" d="M181.5,113.8c1.7-5,5.1-9.4,9.5-12.4c4.4-3,9.7-4.4,15-4.2c5.3,0.3,10.4,2.3,14.5,5.7
				c4.1,3.4,7,8.1,8.2,13.3s0.7,10.6-1.5,15.5c-2.2,4.9-5.8,8.9-10.5,11.5c-4.7,2.6-10,3.6-15.3,2.9c-5.3-0.7-10.2-3.2-14-6.9
				l-9.3-3.2c-0.4-0.1-0.7-0.4-0.9-0.8c-0.2-0.4-0.2-0.8-0.1-1.2l3.2-9.3C179.9,121.1,180.3,117.3,181.5,113.8z"/>
			<path class="st5" d="M218,117.4c-0.3-0.7-1.2-1-1.9-0.6l-17.7,8.7l-2.6-5.4c-0.3-0.7-1.2-1-1.9-0.6c-0.7,0.3-1,1.2-0.6,1.9
				l3.2,6.6c0,0,0,0,0,0c0.3,0.7,1.2,1,1.9,0.6l19-9.3C218,118.9,218.3,118.1,218,117.4z"/>
		</g>
	</g>
	<path class="st6" d="M117.8,160.7l-60.2,26.2l-9,3.9l-13.4,5.8c-1.2-1.6-2.4-3.2-3.6-4.8c-6.2-8.9-11.3-19-14.2-30.7
		c-2.8-11.1-3.5-22.4-2.3-33.7l5.5-2.4c1.5-2.8,3.3-7.3,4.7-14.6c1.5-7.7,1.6-15.6,1.2-22.7c-0.5-7.6-1.5-14.2-2.3-18.6
		c-1.1-6.6,7.6-11.1,14.1-2c1.9,2.7,3.7,6.7,4.9,12.1c4.5,20.2,3.6,26.9,9.7,26.4c0.3-0.2,0.6-0.4,1-0.6l47.9-20.8
		c4.3-1.9,9.5,0.7,11.7,5.8c0.6,1.4,0.9,2.8,1,4.1c0.1,3.7-1.6,7-4.7,8.4l-1.3,0.6c0.1,0,0.2,0,0.2,0h0c3.1,0.5,6,2.8,7.5,6.2
		c0.7,1.6,1,3.3,1,5c-0.1,3.4-1.8,6.3-4.7,7.6l-1.3,0.6c0,0,0,0,0.1,0h0c3.1,0.5,6.1,2.7,7.7,6.3c0.8,1.9,1.1,3.9,0.9,5.8
		c-0.3,2.9-1.9,5.4-4.3,6.6l0,0c-0.1,0.1-0.2,0.1-0.3,0.1l-1.3,0.6c3.2,0.4,6.2,2.7,7.7,6.3c0.3,0.7,0.5,1.4,0.7,2.1
		C123.3,154.8,121.5,159.1,117.8,160.7z"/>
	<path class="st7" d="M109.8,102.6l-1.3,0.6c0.1,0,0.2,0,0.2,0L82,112.3l32.5-18.1C114.7,97.9,112.9,101.2,109.8,102.6z"/>
	<path class="st7" d="M117.2,114.4c-0.1,3.4-1.8,6.3-4.7,7.6l-1.3,0.6c0,0,0,0,0.1,0l-21.6,8.6L117.2,114.4z"/>
	<path class="st7" d="M119.8,134.6c-0.3,2.9-1.9,5.4-4.3,6.6l0,0l-25.9,10.5L119.8,134.6z"/>
	<path class="st7" d="M117.8,160.7l-60.2,26.2l-9,3.9l-13.4,5.8c-1.2-1.6-2.4-3.2-3.6-4.8l90.5-41.5
		C123.3,154.8,121.5,159.1,117.8,160.7z"/>
	<g>
		<g>
			<path class="st6" d="M17.3,53.8c-0.5,0-0.9-0.2-1.3-0.6l-6.5-7.6c-0.6-0.7-0.5-1.8,0.2-2.4c0.7-0.6,1.8-0.5,2.4,0.2l6.5,7.6
				c0.6,0.7,0.5,1.8-0.2,2.4C18.1,53.6,17.7,53.8,17.3,53.8z"/>
		</g>
		<g>
			<path class="st6" d="M38.2,56.6c-0.5,0-0.9-0.2-1.3-0.6c-0.6-0.7-0.5-1.8,0.2-2.4l6.1-5.2c0.7-0.6,1.8-0.5,2.4,0.2
				c0.6,0.7,0.5,1.8-0.2,2.4l-6.1,5.2C39,56.5,38.6,56.6,38.2,56.6z"/>
		</g>
		<g>
			<path class="st6" d="M10.5,80.5c-0.5,0-0.9-0.2-1.3-0.6c-0.6-0.7-0.5-1.8,0.2-2.4l6.5-5.6c0.7-0.6,1.8-0.5,2.4,0.2
				c0.6,0.7,0.5,1.8-0.2,2.4l-6.5,5.6C11.3,80.3,10.9,80.5,10.5,80.5z"/>
		</g>
		<g>
			<path class="st6" d="M12,64.1c0,0-0.1,0-0.1,0l-9.7-0.7c-0.9-0.1-1.6-0.9-1.5-1.8c0.1-0.9,0.9-1.6,1.8-1.5l9.7,0.7
				c0.9,0.1,1.6,0.9,1.5,1.8C13.6,63.4,12.9,64.1,12,64.1z"/>
		</g>
		<g>
			<path class="st6" d="M28.2,50.1c0,0-0.1,0-0.1,0c-0.9-0.1-1.6-0.9-1.5-1.8l0.7-9.1c0.1-0.9,0.9-1.6,1.8-1.5s1.6,0.9,1.5,1.8
				l-0.7,9.1C29.8,49.4,29.1,50.1,28.2,50.1z"/>
		</g>
	</g>
</g>
</svg>
