<?xml version="1.0" encoding="utf-8"?>
<!-- Generator: Adobe Illustrator 25.2.0, SVG Export Plug-In . SVG Version: 6.00 Build 0)  -->
<svg version="1.1" id="Layer_1" xmlns="http://www.w3.org/2000/svg" xmlns:xlink="http://www.w3.org/1999/xlink" x="0px" y="0px"
	 viewBox="0 0 300 273.9" style="enable-background:new 0 0 300 273.9;" xml:space="preserve">
<style type="text/css">
	.st0{fill:#FECE2F;}
	.st1{fill:#0D122B;}
	.st2{fill:#131940;}
	.st3{fill:url(#SVGID_1_);}
	.st4{fill:#BDD0FB;}
	.st5{fill:#4696F0;}
	.st6{fill:#F3B74C;}
	.st7{fill:#FFFFFF;stroke:#FFFFFF;stroke-width:0.9677;}
	.st8{fill:url(#SVGID_2_);}
	.st9{fill:#FFFFFF;stroke:#FFFFFF;stroke-width:0.9206;}
	.st10{fill:url(#SVGID_3_);}
	.st11{fill:url(#SVGID_4_);}
	.st12{fill:#FFFFFF;stroke:#FFFFFF;stroke-width:0.6974;}
</style>
<g>
	<g>
		<path class="st0" d="M299.5,162.5c6.1-66-45.4-147.7-115-155.6c-43.8-5-79.1,21.1-102.2,38.2C58.2,62.9,20.1,91.1,14,138
			c-8.1,61.6,42.4,129.4,84.7,129.7c41.5,0.3,60.3-64.4,103.6-58.6c26.8,3.6,34.2,30.4,54.7,27.1
			C280.6,232.4,296.7,192.7,299.5,162.5z"/>
	</g>
	<g>
		<g>
			<polygon class="st1" points="165.2,127.3 161.4,161.8 206.1,161.8 200.3,127.3 			"/>
		</g>
		<g>
			<path class="st2" d="M87.5,39.6v81.4c0,6.7,5.3,12.2,12,12.4c29.7,0.8,133.8,2.6,162.1,2.2c4.9-0.1,8.8-4,9-8.8
				c0.5-18.9,1.4-64.4-1.8-85.5c-0.7-4.4-4.4-7.8-8.9-7.9c-24.9-0.8-135.2-3.3-163.5-2.7C91.4,30.8,87.5,34.8,87.5,39.6z"/>
		</g>
		<linearGradient id="SVGID_1_" gradientUnits="userSpaceOnUse" x1="171.9618" y1="24.5879" x2="185.5184" y2="134.6678">
			<stop  offset="0" style="stop-color:#FFFFFF"/>
			<stop  offset="0.128" style="stop-color:#FAFCFF"/>
			<stop  offset="0.2762" style="stop-color:#ECF4FD"/>
			<stop  offset="0.4344" style="stop-color:#D5E7FC"/>
			<stop  offset="0.5996" style="stop-color:#B4D5F9"/>
			<stop  offset="0.7703" style="stop-color:#8BBDF6"/>
			<stop  offset="0.9432" style="stop-color:#58A0F1"/>
			<stop  offset="1" style="stop-color:#4696F0"/>
		</linearGradient>
		<path class="st3" d="M92.6,39.2v77.4c0,3.9,3.1,7.1,7.1,7.2l157.9,2c3.9,0.1,7.1-3.1,7.1-6.9l0.3-76.7c0-2.8-2.2-5-5-5.1
			L98.2,33.7C95.1,33.7,92.6,36.1,92.6,39.2z"/>
		<path class="st4" d="M265.8,128.9C265.8,128.9,265.8,128.9,265.8,128.9l-173.2-3c-0.1,0-0.3-0.1-0.2-0.3c0-0.1,0.1-0.3,0.3-0.2
			l173.2,3c0.1,0,0.3,0.1,0.2,0.3C266,128.8,265.9,128.9,265.8,128.9z"/>
		<g>
			<path class="st2" d="M215.7,168.9h-65.4c-1.8,0-3.1-1.3-2.8-2.6l0.8-3.3c0.3-1,1.4-1.7,2.7-1.8l63.1-2c1.4,0,2.6,0.7,2.9,1.7
				l1.5,5.3C218.9,167.6,217.5,168.9,215.7,168.9z"/>
		</g>
		<g>
			<path class="st5" d="M196.7,93.4c7.6,0,13.7-6.1,13.7-13.7S204.3,66,196.7,66c-7.6,0-13.7,6.1-13.7,13.7S189.2,93.4,196.7,93.4z"
				/>
			<path class="st5" d="M169.3,93.4c7.6,0,13.7-6.1,13.7-13.7S176.9,66,169.3,66c-7.6,0-13.7,6.1-13.7,13.7S161.7,93.4,169.3,93.4z"
				/>
			<path class="st6" d="M183,79.7c7.6,0,13.7-6.1,13.7-13.7c0-7.6-6.1-13.7-13.7-13.7c-7.6,0-13.7,6.1-13.7,13.7
				C169.3,73.6,175.4,79.7,183,79.7z"/>
			<path class="st6" d="M183,107.1c7.6,0,13.7-6.1,13.7-13.7c0-7.6-6.1-13.7-13.7-13.7c-7.6,0-13.7,6.1-13.7,13.7
				C169.3,101,175.4,107.1,183,107.1z"/>
			<path class="st2" d="M162,79.7c0-4.6,1.5-9,4.2-12.6c2.7-3.6,6.6-6.3,11-7.5c4.4-1.3,9-1.1,13.3,0.6c4.2,1.6,7.9,4.6,10.3,8.4
				c2.4,3.9,3.5,8.4,3.1,12.9c-0.4,4.5-2.2,8.8-5.3,12.2c-3,3.4-7.1,5.7-11.6,6.6c-4.5,0.9-9.1,0.3-13.2-1.7h-8.4
				c-0.4,0-0.7-0.1-0.9-0.4c-0.2-0.2-0.4-0.6-0.4-0.9v-8.4C162.8,86,162,82.9,162,79.7z"/>
			<path class="st7" d="M192.5,72.5c-0.5-0.5-1.2-0.5-1.7,0l-11.9,11.9l-3.6-3.6c-0.5-0.5-1.2-0.5-1.7,0c-0.5,0.5-0.5,1.2,0,1.7
				l4.5,4.5c0,0,0,0,0,0c0.5,0.5,1.2,0.5,1.7,0l12.7-12.7C192.9,73.7,192.9,73,192.5,72.5z"/>
		</g>
	</g>
	<g>
		<g>
			<path class="st1" d="M17.2,213.8c0.3,1.3,1.6,2.2,2.9,2l132.6-26.2c1.3-0.3,2.2-1.6,2-2.9l-14-76.4c-0.3-1.3-2.4-3.7-5.2-2.9
				L5.2,129.6c-1.7,0.3-3.2,1.3-4.2,2.7c-1,1.4-1.3,3.2-0.9,4.9L17.2,213.8z"/>
		</g>
		<g>
			<path class="st2" d="M9.2,224.5L163.5,194c0.6-0.1,0.9-0.7,0.8-1.2l-0.9-4.7c-0.1-0.6-0.7-0.9-1.2-0.8L7.9,217.8
				c-0.6,0.1-0.9,0.7-0.8,1.2l0.9,4.7C8.1,224.2,8.6,224.6,9.2,224.5z"/>
		</g>
		
			<linearGradient id="SVGID_2_" gradientUnits="userSpaceOnUse" x1="92.0061" y1="96.6077" x2="58.8996" y2="211.1669" gradientTransform="matrix(0.981 -0.1941 0.1941 0.981 -29.4552 51.9773)">
			<stop  offset="0" style="stop-color:#FFFFFF"/>
			<stop  offset="0.128" style="stop-color:#FAFCFF"/>
			<stop  offset="0.2762" style="stop-color:#ECF4FD"/>
			<stop  offset="0.4344" style="stop-color:#D5E7FC"/>
			<stop  offset="0.5996" style="stop-color:#B4D5F9"/>
			<stop  offset="0.7703" style="stop-color:#8BBDF6"/>
			<stop  offset="0.9432" style="stop-color:#58A0F1"/>
			<stop  offset="1" style="stop-color:#4696F0"/>
		</linearGradient>
		<path class="st8" d="M19.2,211c0.3,1.3,1.5,2.1,2.8,1.9L149,187.7c1.3-0.3,2.1-1.5,1.9-2.8l-12.6-69.4c-0.9-4.1-4.9-4.9-7.1-4.4
			L6.3,132.4c-1.2,0.2-2.3,0.9-2.9,1.9c-0.7,1-0.9,2.2-0.6,3.4L19.2,211z"/>
		<g>
			<path class="st5" d="M96,170.6c7.1-1.4,11.7-8.3,10.3-15.3c-1.4-7.1-8.3-11.7-15.3-10.3c-7.1,1.4-11.7,8.3-10.3,15.3
				C82,167.4,88.9,172,96,170.6z"/>
			<path class="st5" d="M70.4,175.7c7.1-1.4,11.7-8.3,10.3-15.3s-8.3-11.7-15.3-10.3c-7.1,1.4-11.7,8.3-10.3,15.3
				S63.3,177.1,70.4,175.7z"/>
			<path class="st6" d="M80.6,160.3c7.1-1.4,11.7-8.3,10.3-15.3c-1.4-7.1-8.3-11.7-15.3-10.3s-11.7,8.3-10.3,15.3
				C66.7,157.1,73.6,161.7,80.6,160.3z"/>
			<path class="st6" d="M85.7,185.9c7.1-1.4,11.7-8.3,10.3-15.3c-1.4-7.1-8.3-11.7-15.3-10.3c-7.1,1.4-11.7,8.3-10.3,15.3
				C71.8,182.7,78.6,187.3,85.7,185.9z"/>
			<path class="st2" d="M61.1,164.2c-0.8-4.2-0.3-8.7,1.6-12.5c1.9-3.9,5-7.1,8.8-9.1s8.2-2.7,12.5-1.9c4.3,0.7,8.2,2.8,11.1,6
				c3,3.2,4.8,7.2,5.3,11.5c0.5,4.3-0.5,8.6-2.7,12.4c-2.2,3.7-5.6,6.6-9.6,8.3c-4,1.6-8.4,1.9-12.6,0.8l-7.8,1.5
				c-0.3,0.1-0.7,0-1-0.2c-0.3-0.2-0.5-0.5-0.5-0.8l-1.5-7.8C62.9,170,61.6,167.2,61.1,164.2z"/>
			<path class="st9" d="M88.1,151.9c-0.5-0.3-1.2-0.2-1.6,0.3l-8.9,13.3l-4-2.7c-0.5-0.3-1.2-0.2-1.6,0.3c-0.3,0.5-0.2,1.2,0.3,1.6
				l5,3.3c0,0,0,0,0,0c0.5,0.3,1.2,0.2,1.6-0.3l9.5-14.2C88.8,152.9,88.6,152.2,88.1,151.9z"/>
		</g>
	</g>
	<g>
		<g>
			<path class="st2" d="M230.1,125.1c-2.4-0.6-4.8,0.6-5.6,2.9c-5.2,14-23,62.2-28.3,79.7c-0.6,1.8,0.4,3.8,2.2,4.5
				c8.9,3.4,34.7,13,49.6,17.5c3.1,0.9,6.4-0.7,7.5-3.8c5.4-14.7,20.3-56.1,25.2-75.7c0.6-2.4-0.6-4.8-2.8-5.8
				C268.4,140,243.1,128.7,230.1,125.1z"/>
		</g>
		
			<linearGradient id="SVGID_3_" gradientUnits="userSpaceOnUse" x1="237.9282" y1="188.0669" x2="251.9985" y2="295.2178" gradientTransform="matrix(0.9387 0.3446 -0.3446 0.9387 88.4488 -114.0797)">
			<stop  offset="0" style="stop-color:#FFFFFF"/>
			<stop  offset="0.128" style="stop-color:#FAFCFF"/>
			<stop  offset="0.2762" style="stop-color:#ECF4FD"/>
			<stop  offset="0.4344" style="stop-color:#D5E7FC"/>
			<stop  offset="0.5996" style="stop-color:#B4D5F9"/>
			<stop  offset="0.7703" style="stop-color:#8BBDF6"/>
			<stop  offset="0.9432" style="stop-color:#58A0F1"/>
			<stop  offset="1" style="stop-color:#4696F0"/>
		</linearGradient>
		<path class="st10" d="M226.7,133c-4.6,11.9-19.7,51.6-24.2,66.6c-0.7,2.2,0.4,4.5,2.4,5.3c8.4,3.4,29.9,12,42.8,15.2
			c2.3,0.6,4.7-0.7,5.7-3.1c4.8-12.1,19.3-48.9,23.7-63.7c0.7-2.4-0.4-4.9-2.5-5.8c-9-4-32-14.1-42.9-17.1
			C229.6,129.8,227.5,131,226.7,133z"/>
		
			<linearGradient id="SVGID_4_" gradientUnits="userSpaceOnUse" x1="236.7664" y1="178.0651" x2="246.9254" y2="178.0651" gradientTransform="matrix(0.9387 0.3446 -0.3446 0.9387 88.4488 -114.0797)">
			<stop  offset="0" style="stop-color:#4F52FF"/>
			<stop  offset="1" style="stop-color:#4042E2"/>
		</linearGradient>
		<path class="st11" d="M249.4,134.6c-0.1,0.3,0.1,0.7,0.4,0.8c1.6,0.6,6.2,2.5,8.2,3.3c0.4,0.2,0.8-0.1,0.9-0.5
			c0,0,0.1-0.5-0.4-0.8c-1.4-0.6-5.5-2.4-8.3-3.3C249.6,134,249.4,134.6,249.4,134.6z"/>
		<g>
			<path class="st5" d="M249,185c5.2,1.8,10.8-1,12.6-6.1c1.8-5.2-1-10.8-6.1-12.6c-5.2-1.8-10.8,1-12.6,6.1S243.8,183.2,249,185z"
				/>
			<path class="st5" d="M230.3,178.6c5.2,1.8,10.8-1,12.6-6.1c1.8-5.2-1-10.8-6.1-12.6c-5.2-1.8-10.8,1-12.6,6.1
				S225.1,176.8,230.3,178.6z"/>
			<path class="st6" d="M242.9,172.4c5.2,1.8,10.8-1,12.6-6.1c1.8-5.2-1-10.8-6.1-12.6s-10.8,1-12.6,6.1
				C235,165,237.7,170.7,242.9,172.4z"/>
			<path class="st6" d="M236.4,191.1c5.2,1.8,10.8-1,12.6-6.1c1.8-5.2-1-10.8-6.1-12.6c-5.2-1.8-10.8,1-12.6,6.1
				C228.5,183.7,231.3,189.3,236.4,191.1z"/>
			<path class="st2" d="M228.6,167.5c1.1-3.1,3.1-5.8,5.8-7.6c2.7-1.8,6-2.7,9.2-2.6c3.3,0.2,6.4,1.4,8.9,3.5c2.5,2.1,4.3,5,5,8.2
				c0.7,3.2,0.4,6.5-0.9,9.5c-1.3,3-3.6,5.5-6.5,7.1c-2.9,1.6-6.2,2.2-9.4,1.8c-3.2-0.4-6.3-1.9-8.6-4.3l-5.7-2
				c-0.2-0.1-0.4-0.3-0.6-0.5c-0.1-0.2-0.1-0.5,0-0.7l2-5.7C227.6,172,227.8,169.7,228.6,167.5z"/>
			<path class="st12" d="M251,169.7c-0.2-0.4-0.7-0.6-1.1-0.4l-10.9,5.3l-1.6-3.3c-0.2-0.4-0.7-0.6-1.1-0.4
				c-0.4,0.2-0.6,0.7-0.4,1.1l2,4.1c0,0,0,0,0,0c0.2,0.4,0.7,0.6,1.1,0.4l11.7-5.7C251,170.7,251.2,170.2,251,169.7z"/>
		</g>
	</g>
</g>
</svg>
