<?xml version="1.0" encoding="utf-8"?>
<!-- Generator: Adobe Illustrator 25.2.0, SVG Export Plug-In . SVG Version: 6.00 Build 0)  -->
<svg version="1.1" id="Layer_1" xmlns="http://www.w3.org/2000/svg" xmlns:xlink="http://www.w3.org/1999/xlink" x="0px" y="0px"
	 viewBox="0 0 300 273.9" style="enable-background:new 0 0 300 273.9;" xml:space="preserve">
<style type="text/css">
	.st0{fill:#4696F0;}
	.st1{fill:#0D122B;}
	.st2{fill:#131940;}
	.st3{fill:url(#SVGID_1_);}
	.st4{opacity:0.65;fill:#FFFFFF;enable-background:new    ;}
	.st5{fill:url(#SVGID_2_);}
	.st6{fill:url(#SVGID_3_);}
	.st7{fill:#FFFFFF;}
	.st8{fill:#F3B74C;}
</style>
<g>
	<g>
		<path class="st0" d="M11.2,57.3C38.9,6.3,117-9.2,175.4,5c6.3,1.5,81.6,21.2,111.9,92.5c5.4,12.7,19.4,45.7,8.8,84.3
			c-15.8,57.4-78.9,100.8-123.7,90.6c-35.6-8.1-26.9-42.4-86.6-88.2C43,151.4,13.6,149.9,3.2,118.8C-6,91.6,7.1,64.8,11.2,57.3z"/>
	</g>
	<polygon class="st1" points="119.5,191.1 114.3,237.6 174.5,237.6 166.6,191.1 	"/>
	<path class="st2" d="M14.9,73.3v109.5c0,9,7.2,16.4,16.2,16.6c40,1,179.9,3.5,218,3c6.5-0.1,11.8-5.3,12-11.9
		c0.7-25.4,1.9-86.6-2.5-115.1c-0.9-6-6-10.5-12-10.7c-33.5-1.1-181.9-4.5-219.9-3.6C20.1,61.4,14.9,66.7,14.9,73.3z"/>
	
		<linearGradient id="SVGID_1_" gradientUnits="userSpaceOnUse" x1="148.2158" y1="287.934" x2="129.3616" y2="44.6062" gradientTransform="matrix(1 0 0 -1 0 276.2642)">
		<stop  offset="0" style="stop-color:#53D8FF"/>
		<stop  offset="1" style="stop-color:#3840F7"/>
	</linearGradient>
	<path class="st3" d="M21.8,72.8v104.1c0,5.3,4.2,9.5,9.5,9.6l212.4,2.6c5.2,0.1,9.5-4.1,9.5-9.3l0.4-103.1c0-3.7-3-6.8-6.7-6.9
		L29.4,65.3C25.2,65.2,21.8,68.6,21.8,72.8z"/>
	<path class="st4" d="M254.7,193.4L254.7,193.4l-233-4c-0.2,0-0.3-0.2-0.3-0.3c0-0.2,0.2-0.3,0.3-0.3l233,4c0.2,0,0.3,0.2,0.3,0.3
		C255.1,193.2,254.9,193.4,254.7,193.4z"/>
	<path class="st2" d="M187.4,247.1h-88c-2.4,0-4.2-1.7-3.7-3.5l1.1-4.5c0.3-1.3,1.8-2.3,3.6-2.4l84.8-2.6c1.8-0.1,3.5,0.9,3.9,2.3
		l2,7.1C191.6,245.4,189.8,247.1,187.4,247.1z"/>
	
		<linearGradient id="SVGID_2_" gradientUnits="userSpaceOnUse" x1="83.6099" y1="243.3215" x2="192.0018" y2="55.5813" gradientTransform="matrix(1 0 0 -1 0 276.2642)">
		<stop  offset="0" style="stop-color:#FFFFFF"/>
		<stop  offset="0.3372" style="stop-color:#B6D6F9"/>
		<stop  offset="0.6506" style="stop-color:#7AB3F4"/>
		<stop  offset="0.8795" style="stop-color:#549EF1"/>
		<stop  offset="1" style="stop-color:#4696F0"/>
	</linearGradient>
	<path class="st5" d="M22.1,72.8v104.1c0,5.3,4.2,9.5,9.5,9.6l212.4,2.6c5.2,0.1,9.5-4.1,9.5-9.3l0.4-103.1c0-3.7-3-6.8-6.7-6.9
		L29.7,65.3C25.5,65.2,22.1,68.6,22.1,72.8z"/>
	
		<linearGradient id="SVGID_3_" gradientUnits="userSpaceOnUse" x1="219.5767" y1="342.684" x2="123.2928" y2="215.9003" gradientTransform="matrix(1 0 0 -1 0 276.2642)">
		<stop  offset="0" style="stop-color:#FF928E"/>
		<stop  offset="1" style="stop-color:#FEB3B1"/>
	</linearGradient>
	<path class="st6" d="M72.7,180.2L72.7,180.2c-0.3,0-0.5-0.2-0.5-0.5V74.2c0-0.3,0.2-0.5,0.5-0.5l0,0c0.3,0,0.5,0.2,0.5,0.5v105.5
		C73.2,180,73,180.2,72.7,180.2z"/>
	
		<rect x="47.6" y="73.5" transform="matrix(1.028588e-02 -0.9999 0.9999 1.028588e-02 -40.0904 138.9929)" class="st7" width="5.1" height="32.5"/>
	
		<rect x="47.7" y="60.7" transform="matrix(1.028588e-02 -0.9999 0.9999 1.028588e-02 -27.1922 126.4251)" class="st8" width="5.1" height="32.5"/>
	
		<rect x="47.5" y="82.6" transform="matrix(1.028588e-02 -0.9999 0.9999 1.028588e-02 -49.2879 147.8993)" class="st7" width="5.1" height="32.5"/>
	
		<rect x="47.4" y="91.8" transform="matrix(1.028588e-02 -0.9999 0.9999 1.028588e-02 -58.5863 156.9038)" class="st7" width="5.1" height="32.5"/>
	<path class="st8" d="M63.5,121.9l-27.4-0.3c-1.4,0-2.5-1.2-2.5-2.6l0,0c0-1.4,1.2-2.5,2.6-2.5l27.4,0.3c1.4,0,2.5,1.2,2.5,2.6l0,0
		C66.1,120.8,64.9,121.9,63.5,121.9z"/>
	<path class="st8" d="M63.5,130.7L36,130.4c-1.4,0-2.5-1.2-2.5-2.6l0,0c0-1.4,1.2-2.5,2.6-2.5l27.4,0.3c1.4,0,2.5,1.2,2.5,2.6l0,0
		C66,129.5,64.9,130.7,63.5,130.7z"/>
	
		<rect x="46.5" y="122.1" transform="matrix(1.028588e-02 -0.9999 0.9999 1.028588e-02 -89.7743 185.9922)" class="st7" width="5.1" height="32.5"/>
	
		<rect x="46.4" y="131.2" transform="matrix(1.028588e-02 -0.9999 0.9999 1.028588e-02 -98.9728 194.8976)" class="st7" width="5.1" height="32.5"/>
	
		<rect x="46.2" y="139.6" transform="matrix(1.028588e-02 -0.9999 0.9999 1.028588e-02 -107.5693 203.0114)" class="st7" width="5.1" height="32.5"/>
	
		<rect x="46" y="151.5" transform="matrix(1.028588e-02 -0.9999 0.9999 1.028588e-02 -119.6656 214.5873)" class="st7" width="5.1" height="32.5"/>
	
		<rect x="46.2" y="160" transform="matrix(1.028588e-02 -0.9999 0.9999 1.028588e-02 -127.9673 223.2005)" class="st8" width="5.1" height="32.5"/>
	<path class="st7" d="M90.9,93l-9.4-0.1c-1.4,0-2.5-1.2-2.5-2.6l0,0c0-1.4,1.2-2.5,2.6-2.5l9.4,0.1c1.4,0,2.5,1.2,2.5,2.6l0,0
		C93.4,91.9,92.3,93,90.9,93z"/>
	<path class="st7" d="M168.1,80.3h-2.2c-1.4,0-2.5-1.2-2.5-2.6l0,0c0-1.4,1.2-2.5,2.6-2.5h2.2c1.4,0,2.5,1.2,2.5,2.6l0,0
		C170.6,79.2,169.5,80.3,168.1,80.3z"/>
	<path class="st7" d="M154.3,92.9h-2.2c-1.4,0-2.5-1.2-2.5-2.6l0,0c0-1.4,1.2-2.5,2.6-2.5h2.2c1.4,0,2.5,1.2,2.5,2.6l0,0
		C156.9,91.8,155.7,93,154.3,92.9z"/>
	<path class="st7" d="M213.6,80.8l-35.2-0.4c-1.4,0-2.5-1.2-2.5-2.6l0,0c0-1.4,1.2-2.5,2.6-2.5l35.2,0.4c1.4,0,2.5,1.2,2.5,2.6l0,0
		C216.2,79.6,215,80.8,213.6,80.8z"/>
	
		<rect x="169.4" y="80.1" transform="matrix(1.028537e-02 -0.9999 0.9999 1.028537e-02 79.3521 261.8697)" class="st7" width="5.1" height="21.5"/>
	
		<rect x="123.1" y="70.3" transform="matrix(1.028537e-02 -0.9999 0.9999 1.028537e-02 33.9289 215.1786)" class="st7" width="5.1" height="40.3"/>
	<path class="st7" d="M172.9,102.4h-2.2c-1.4,0-2.5-1.2-2.5-2.6l0,0c0-1.4,1.2-2.5,2.6-2.5h2.2c1.4,0,2.5,1.2,2.5,2.6l0,0
		C175.5,101.3,174.4,102.4,172.9,102.4z"/>
	
		<rect x="188.1" y="89.6" transform="matrix(1.028537e-02 -0.9999 0.9999 1.028537e-02 88.3587 289.9697)" class="st7" width="5.1" height="21.5"/>
	
		<rect x="141.7" y="79.7" transform="matrix(1.028537e-02 -0.9999 0.9999 1.028537e-02 42.9384 243.0795)" class="st7" width="5.1" height="40.3"/>
	<path class="st7" d="M148.6,122.2h-2.2c-1.4,0-2.5-1.2-2.5-2.6l0,0c0-1.4,1.2-2.5,2.6-2.5h2.2c1.4,0,2.5,1.2,2.5,2.6l0,0
		C151.1,121.1,150,122.3,148.6,122.2z"/>
	
		<rect x="163.7" y="109.4" transform="matrix(1.028537e-02 -0.9999 0.9999 1.028537e-02 44.4136 285.1681)" class="st7" width="5.1" height="21.5"/>
	
		<rect x="117.3" y="99.6" transform="matrix(1.028537e-02 -0.9999 0.9999 1.028537e-02 -1.1077 238.3758)" class="st7" width="5.1" height="40.3"/>
	<path class="st7" d="M154.6,171h-2.2c-1.4,0-2.5-1.2-2.5-2.6l0,0c0-1.4,1.2-2.5,2.6-2.5h2.2c1.4,0,2.5,1.2,2.5,2.6l0,0
		C157.1,169.9,156,171,154.6,171z"/>
	
		<rect x="169.7" y="158.2" transform="matrix(1.028537e-02 -0.9999 0.9999 1.028537e-02 1.5559 339.4622)" class="st7" width="5.1" height="21.5"/>
	
		<rect x="123.3" y="148.3" transform="matrix(1.028537e-02 -0.9999 0.9999 1.028537e-02 -43.8642 292.5721)" class="st7" width="5.1" height="40.3"/>
	<path class="st7" d="M155.5,142.1h-2.2c-1.4,0-2.5-1.2-2.5-2.6l0,0c0-1.4,1.2-2.5,2.6-2.5h2.2c1.4,0,2.5,1.2,2.5,2.6l0,0
		C158,141,156.9,142.1,155.5,142.1z"/>
	
		<rect x="124.2" y="119.4" transform="matrix(1.028537e-02 -0.9999 0.9999 1.028537e-02 -14.0765 264.871)" class="st7" width="5.1" height="40.3"/>
	<path class="st7" d="M180.7,131.9h-2.2c-1.4,0-2.5-1.2-2.5-2.6l0,0c0-1.4,1.2-2.5,2.6-2.5h2.2c1.4,0,2.5,1.2,2.5,2.6l0,0
		C183.2,130.8,182.1,131.9,180.7,131.9z"/>
	
		<rect x="195.8" y="119.1" transform="matrix(1.028537e-02 -0.9999 0.9999 1.028537e-02 66.4825 326.8639)" class="st7" width="5.1" height="21.5"/>
	
		<rect x="135.9" y="95.5" transform="matrix(1.028537e-02 -0.9999 0.9999 1.028537e-02 7.752 266.3257)" class="st7" width="5.1" height="67.4"/>
	<path class="st7" d="M182.7,162.1h-2.2c-1.4,0-2.5-1.2-2.5-2.6l0,0c0-1.4,1.2-2.5,2.6-2.5h2.2c1.4,0,2.5,1.2,2.5,2.6l0,0
		C185.3,161,184.1,162.2,182.7,162.1z"/>
	<path class="st7" d="M208.6,162.7l-16.4-0.2c-1.4,0-2.5-1.2-2.5-2.6l0,0c0-1.4,1.2-2.5,2.6-2.5l16.4,0.2c1.4,0,2.5,1.2,2.5,2.6l0,0
		C211.2,161.6,210,162.7,208.6,162.7z"/>
	
		<rect x="138" y="125.7" transform="matrix(1.028537e-02 -0.9999 0.9999 1.028537e-02 -20.3668 298.3145)" class="st7" width="5.1" height="67.4"/>
	<path class="st7" d="M181.1,180.2h-2.2c-1.4,0-2.5-1.2-2.5-2.6l0,0c0-1.4,1.2-2.5,2.6-2.5h2.2c1.4,0,2.5,1.2,2.5,2.6l0,0
		C183.6,179.1,182.5,180.2,181.1,180.2z"/>
	<path class="st7" d="M207,180.8l-16.4-0.2c-1.4,0-2.5-1.2-2.5-2.6l0,0c0-1.4,1.2-2.5,2.6-2.5l16.4,0.2c1.4,0,2.5,1.2,2.5,2.6l0,0
		C209.5,179.6,208.4,180.8,207,180.8z"/>
	
		<rect x="136.3" y="143.8" transform="matrix(1.028537e-02 -0.9999 0.9999 1.028537e-02 -40.1474 314.5269)" class="st8" width="5.1" height="67.4"/>
	<path class="st7" d="M166.4,151.2h-2.2c-1.4,0-2.5-1.2-2.5-2.6l0,0c0-1.4,1.2-2.5,2.6-2.5h2.2c1.4,0,2.5,1.2,2.5,2.6l0,0
		C168.9,150.1,167.8,151.2,166.4,151.2z"/>
	
		<rect x="181.5" y="138.4" transform="matrix(1.028537e-02 -0.9999 0.9999 1.028537e-02 33.0324 331.666)" class="st7" width="5.1" height="21.5"/>
	
		<rect x="129.9" y="123.2" transform="matrix(1.028537e-02 -0.9999 0.9999 1.028537e-02 -17.5842 279.5259)" class="st7" width="5.1" height="50.8"/>
	<path class="st7" d="M179.7,112.9h-2.2c-1.4,0-2.5-1.2-2.5-2.6l0,0c0-1.4,1.2-2.5,2.6-2.5h2.2c1.4,0,2.5,1.2,2.5,2.6l0,0
		C182.3,111.8,181.1,112.9,179.7,112.9z"/>
	
		<rect x="194.8" y="100.1" transform="matrix(1.028537e-02 -0.9999 0.9999 1.028537e-02 84.491 307.0598)" class="st7" width="5.1" height="21.5"/>
	
		<rect x="135.7" y="77.4" transform="matrix(1.028537e-02 -0.9999 0.9999 1.028537e-02 26.6015 247.3718)" class="st7" width="5.1" height="65.7"/>
	
		<rect x="83.8" y="70.4" transform="matrix(1.028537e-02 -0.9999 0.9999 1.028537e-02 7.8342 163.2149)" class="st8" width="5.1" height="14.5"/>
	
		<rect x="128.9" y="51.7" transform="matrix(1.028537e-02 -0.9999 0.9999 1.028537e-02 52.3195 208.3595)" class="st8" width="5.1" height="52.2"/>
	<path class="st7" d="M90.8,102.1l-9.4-0.1c-1.4,0-2.5-1.2-2.5-2.6l0,0c0-1.4,1.2-2.5,2.6-2.5l9.4,0.1c1.4,0,2.5,1.2,2.5,2.6l0,0
		C93.3,101,92.2,102.2,90.8,102.1z"/>
	<path class="st7" d="M90.7,111.3l-9.4-0.1c-1.4,0-2.5-1.2-2.5-2.6l0,0c0-1.4,1.2-2.5,2.6-2.5l9.4,0.1c1.4,0,2.5,1.2,2.5,2.6l0,0
		C93.2,110.2,92.1,111.3,90.7,111.3z"/>
	
		<rect x="83.4" y="112.7" transform="matrix(1.028537e-02 -0.9999 0.9999 1.028537e-02 -34.8583 204.6779)" class="st8" width="5.1" height="14.5"/>
	
		<rect x="83.3" y="121.4" transform="matrix(1.028537e-02 -0.9999 0.9999 1.028537e-02 -43.6555 213.1885)" class="st8" width="5.1" height="14.5"/>
	
		<rect x="82.9" y="131.8" transform="matrix(1.028537e-02 -0.9999 0.9999 1.028537e-02 -54.4503 223.0812)" class="st7" width="5.1" height="14.5"/>
	
		<rect x="82.8" y="140.9" transform="matrix(1.028537e-02 -0.9999 0.9999 1.028537e-02 -63.6488 231.9867)" class="st7" width="5.1" height="14.5"/>
	
		<rect x="82.6" y="149.3" transform="matrix(1.028537e-02 -0.9999 0.9999 1.028537e-02 -72.2447 240.1)" class="st7" width="5.1" height="14.5"/>
	
		<rect x="82.5" y="161.2" transform="matrix(1.028537e-02 -0.9999 0.9999 1.028537e-02 -84.2431 251.7767)" class="st7" width="5.1" height="14.5"/>
	
		<rect x="82.5" y="169.7" transform="matrix(1.028537e-02 -0.9999 0.9999 1.028537e-02 -92.7418 260.1892)" class="st8" width="5.1" height="14.5"/>
</g>
</svg>
